<?xml version="1.0" standalone="no"?>
<!DOCTYPE svg PUBLIC "-//W3C//DTD SVG 20010904//EN"
 "http://www.w3.org/TR/2001/REC-SVG-20010904/DTD/svg10.dtd">
<svg version="1.0" xmlns="http://www.w3.org/2000/svg"
 width="512.000000pt" height="512.000000pt" viewBox="0 0 512.000000 512.000000"
 preserveAspectRatio="xMidYMid meet">
<metadata>
Created by potrace 1.14, written by Peter Selinger 2001-2017
</metadata>
<g transform="translate(0.000000,512.000000) scale(0.100000,-0.100000)"
fill="#000000" stroke="none">
<path d="M2284 5065 c-9 -23 3 -45 26 -45 18 0 20 -6 20 -54 0 -29 3 -74 6
-100 6 -44 8 -46 40 -46 l34 0 -7 105 c-6 103 -6 105 15 105 17 0 22 6 22 25
0 24 -2 25 -75 25 -58 0 -77 -4 -81 -15z"/>
<path d="M2470 4950 l0 -130 35 0 35 0 0 130 0 130 -35 0 -35 0 0 -130z"/>
<path d="M2597 5062 c-25 -28 -35 -183 -14 -216 20 -30 69 -42 107 -26 36 15
40 26 47 131 5 79 4 88 -16 108 -27 27 -100 29 -124 3z m70 -108 c-5 -83 -10
-104 -23 -91 -11 10 7 177 18 177 7 0 9 -29 5 -86z"/>
<path d="M2180 5061 l-35 -6 -3 -127 -3 -128 36 0 c31 0 35 3 35 25 0 16 6 25
15 25 8 0 15 -9 15 -20 0 -16 7 -20 35 -20 44 0 44 2 3 147 -24 85 -35 113
-47 112 -9 -1 -32 -4 -51 -8z m44 -134 c5 -21 3 -28 -6 -25 -7 3 -14 22 -16
44 -2 42 10 31 22 -19z"/>
<path d="M2790 5063 c0 -4 -7 -55 -15 -113 -20 -145 -20 -140 15 -140 26 0 30
4 31 28 0 15 4 36 8 47 6 15 10 8 16 -32 7 -52 8 -53 39 -53 l33 0 13 120 c7
66 12 123 12 127 -2 14 -45 15 -53 1 -5 -7 -9 -31 -9 -52 0 -49 -7 -43 -23 20
-10 42 -16 49 -39 52 -16 2 -28 0 -28 -5z"/>
<path d="M2045 5045 c-5 -2 -23 -6 -38 -10 -28 -6 -29 -7 -23 -58 l6 -52 -22
49 -21 48 -41 -6 c-22 -4 -42 -8 -43 -10 -3 -3 46 -248 50 -253 1 -1 15 1 30
4 31 6 30 -2 11 103 -4 22 -3 23 5 5 6 -11 17 -37 25 -58 11 -28 21 -38 33
-35 15 3 18 14 17 78 l-2 75 13 -50 c7 -27 14 -60 14 -73 1 -19 5 -21 29 -16
15 4 29 8 31 10 4 4 -32 190 -45 237 -5 17 -9 19 -29 12z"/>
<path d="M3074 5023 c-33 -24 -44 -92 -19 -113 33 -27 56 -70 50 -90 -10 -31
-28 -24 -23 9 3 23 0 31 -16 35 -41 11 -46 7 -46 -33 0 -47 26 -71 76 -71 50
0 63 9 74 51 12 43 0 78 -39 113 -22 20 -29 56 -11 56 6 0 10 -9 10 -19 0 -19
42 -37 60 -26 17 10 11 51 -9 69 -21 19 -90 31 -107 19z"/>
<path d="M3240 4906 c0 -49 -6 -101 -15 -127 -17 -47 -10 -59 32 -59 17 0 24
8 29 36 3 19 29 69 56 111 49 76 51 85 12 97 -16 5 -24 -2 -42 -36 l-22 -43 6
44 c6 46 -3 61 -38 61 -16 0 -18 -11 -18 -84z"/>
<path d="M1745 4973 c-75 -17 -87 -24 -80 -52 19 -77 68 -221 75 -221 5 0 20
4 34 9 24 10 24 10 10 57 -16 54 -17 64 -6 64 5 0 16 -24 25 -54 18 -54 18
-55 47 -44 26 8 29 14 24 36 -11 44 -32 92 -41 92 -5 0 -7 15 -5 34 3 27 -2
40 -22 60 -14 14 -29 25 -33 25 -4 -1 -17 -3 -28 -6z m25 -90 c0 -7 -4 -13 -9
-13 -10 0 -21 25 -21 48 1 15 3 14 15 -2 8 -11 15 -26 15 -33z"/>
<path d="M3415 4907 c-25 -38 -22 -80 9 -120 29 -37 29 -77 1 -77 -12 0 -12 6
-4 26 11 32 11 32 -28 40 -27 5 -31 3 -37 -21 -10 -38 1 -63 34 -80 59 -31
104 -14 121 45 12 38 11 43 -19 84 -19 26 -30 51 -26 60 9 23 27 20 21 -3 -3
-13 3 -22 21 -30 27 -13 36 -8 46 25 9 29 -32 64 -82 71 -35 5 -42 2 -57 -20z"/>
<path d="M1530 4913 c-30 -11 -50 -37 -50 -64 0 -36 55 -171 77 -186 33 -25
92 -9 119 32 16 24 15 29 -11 100 -42 115 -72 141 -135 118z m61 -118 c30 -74
34 -95 21 -95 -5 0 -21 30 -35 68 -42 108 -41 105 -27 100 7 -2 25 -35 41 -73z"/>
<path d="M3590 4859 c-9 -17 -8 -23 6 -34 17 -12 16 -18 -24 -105 -23 -51 -41
-94 -40 -95 28 -14 63 -25 65 -18 2 4 21 46 43 93 32 68 43 84 59 82 12 -2 24
5 31 18 10 19 6 23 -55 50 -37 17 -69 30 -71 30 -2 0 -8 -9 -14 -21z"/>
<path d="M1365 4838 c-22 -11 -41 -21 -43 -23 -1 -1 23 -54 53 -118 l55 -116
30 11 c36 12 36 17 9 70 -20 39 -20 42 -4 54 25 19 11 56 -19 48 -33 -8 -45
26 -17 45 16 10 18 17 10 32 -12 24 -24 23 -74 -3z"/>
<path d="M3754 4768 c-9 -18 -36 -70 -61 -115 l-44 -82 52 -27 c50 -25 53 -25
66 -8 15 20 17 34 6 34 -5 0 -14 4 -22 9 -23 15 5 54 34 47 18 -5 25 -1 30 15
5 15 2 25 -9 31 -25 14 -2 51 26 42 20 -6 38 8 38 32 0 8 -80 54 -95 54 -2 0
-12 -15 -21 -32z"/>
<path d="M1240 4780 c-13 -8 -12 -15 8 -49 31 -57 28 -61 -17 -17 -35 34 -41
37 -62 26 -13 -7 -25 -14 -27 -15 -2 -2 115 -215 124 -224 2 -2 15 2 29 9 l24
13 -26 46 -26 46 40 -38 c37 -35 42 -37 66 -26 15 7 27 15 27 18 0 18 -119
216 -131 218 -8 2 -21 -1 -29 -7z"/>
<path d="M3854 4628 c-36 -56 -68 -108 -71 -114 -2 -6 8 -16 22 -22 24 -11 27
-9 61 43 20 30 38 55 40 55 1 0 -10 -28 -25 -62 -26 -57 -27 -64 -12 -75 14
-11 23 -5 64 40 l48 52 -35 -57 -36 -58 26 -16 c13 -9 26 -15 28 -13 12 15
136 214 136 218 0 4 -16 15 -36 26 l-36 19 -34 -37 c-19 -20 -34 -35 -34 -33
0 2 7 20 16 41 18 45 15 55 -24 78 l-31 18 -67 -103z"/>
<path d="M2315 4713 c-599 -51 -1142 -296 -1552 -700 -600 -592 -835 -1437
-622 -2241 242 -918 1047 -1613 2024 -1748 156 -22 492 -25 635 -6 586 77
1106 336 1496 744 328 344 540 768 619 1238 22 130 31 448 16 591 -91 879
-677 1630 -1531 1964 -315 123 -752 187 -1085 158z m1265 -863 c0 -39 4 -50
16 -50 8 0 12 -4 9 -10 -3 -5 -22 -10 -41 -10 -19 0 -34 5 -34 10 0 6 7 10 15
10 11 0 15 11 15 40 0 31 -3 38 -15 34 -8 -4 -15 -2 -15 4 0 6 6 13 13 15 31
13 37 6 37 -43z m-142 -123 c11 -22 11 -32 0 -54 -19 -41 -53 -42 -66 -3 -25
70 35 122 66 57z m92 -23 c0 -24 5 -44 10 -44 6 0 10 -4 10 -10 0 -5 -16 -10
-35 -10 -19 0 -35 5 -35 10 0 6 7 10 15 10 10 0 15 11 15 35 0 24 -5 35 -15
35 -21 0 -19 18 3 23 27 6 32 -1 32 -49z m129 22 c10 -21 11 -34 2 -52 -24
-53 -71 -37 -71 25 0 64 43 81 69 27z m107 9 c13 -20 15 -33 8 -58 -18 -60
-74 -43 -74 22 0 61 37 81 66 36z m-436 -134 c14 -26 13 -74 -2 -89 -30 -30
-68 -1 -68 52 0 47 50 74 70 37z m90 -31 c0 -38 4 -50 15 -50 8 0 15 -4 15
-10 0 -5 -18 -10 -40 -10 -22 0 -40 5 -40 10 0 6 7 10 15 10 10 0 15 11 15 35
0 24 -5 35 -15 35 -34 0 -12 23 28 29 4 0 7 -21 7 -49z m110 0 c0 -38 4 -50
15 -50 8 0 15 -4 15 -10 0 -5 -18 -10 -40 -10 -22 0 -40 5 -40 10 0 6 7 10 15
10 10 0 15 11 15 35 0 24 -5 35 -15 35 -34 0 -12 23 28 29 4 0 7 -21 7 -49z
m128 38 c16 -16 16 -80 0 -96 -44 -44 -94 42 -51 90 19 21 34 23 51 6z m92
-38 c0 -38 4 -50 15 -50 8 0 15 -4 15 -10 0 -5 -18 -10 -40 -10 -22 0 -40 5
-40 10 0 6 7 10 15 10 23 0 21 70 -2 70 -16 1 -16 2 1 15 31 23 36 18 36 -35z
m128 38 c16 -16 16 -80 0 -96 -17 -17 -39 -15 -54 6 -18 23 -17 53 2 80 17 25
34 28 52 10z m-392 -218 c7 0 14 -4 14 -10 0 -5 -16 -10 -35 -10 -19 0 -35 5
-35 10 0 6 7 10 15 10 10 0 15 11 15 35 0 24 -5 35 -15 35 -21 0 -19 18 3 22
14 3 18 -5 20 -44 2 -34 7 -48 18 -48z m104 48 c0 -27 6 -45 18 -54 15 -12 12
-13 -25 -14 -24 0 -43 5 -43 10 0 6 7 10 15 10 23 0 21 70 -2 70 -17 1 -16 2
1 15 27 20 36 10 36 -37z m124 36 c30 -29 13 -104 -22 -104 -27 0 -42 20 -42
56 0 31 21 64 40 64 5 0 16 -7 24 -16z m-116 -136 c7 -7 12 -29 12 -49 0 -67
-52 -78 -74 -16 -19 52 27 100 62 65z"/>
<path d="M3385 3720 c-8 -26 3 -60 20 -60 8 0 17 9 20 20 8 26 -3 60 -20 60
-8 0 -17 -9 -20 -20z"/>
<path d="M3605 3720 c-8 -26 3 -60 20 -60 8 0 17 9 20 20 8 26 -3 60 -20 60
-8 0 -17 -9 -20 -20z"/>
<path d="M3715 3721 c-9 -30 4 -63 23 -59 12 2 17 14 17 38 0 40 -29 55 -40
21z"/>
<path d="M3284 3587 c-10 -27 0 -62 19 -65 16 -3 18 2 15 34 -3 39 -24 57 -34
31z"/>
<path d="M3614 3586 c-10 -25 0 -61 19 -64 14 -3 17 4 17 37 0 30 -4 41 -15
41 -9 0 -18 -6 -21 -14z"/>
<path d="M3834 3586 c-10 -25 0 -61 19 -64 14 -3 17 4 17 37 0 30 -4 41 -15
41 -9 0 -18 -6 -21 -14z"/>
<path d="M3677 3464 c-4 -4 -7 -22 -7 -41 0 -27 4 -33 21 -33 17 0 20 5 17 37
-3 35 -17 51 -31 37z"/>
<path d="M3554 3316 c-10 -25 0 -61 19 -64 14 -3 17 4 17 37 0 30 -4 41 -15
41 -9 0 -18 -6 -21 -14z"/>
<path d="M1068 4684 l-28 -15 27 -42 c85 -135 114 -177 120 -177 5 0 18 8 30
18 l22 17 -67 107 c-37 59 -69 108 -72 107 -3 0 -17 -7 -32 -15z"/>
<path d="M872 4558 c-28 -18 -52 -36 -52 -41 0 -4 34 -53 76 -108 l75 -99 30
17 c39 23 89 69 89 82 0 12 -95 140 -122 164 -27 23 -35 22 -96 -15z m92 -87
c44 -56 55 -81 39 -81 -7 1 -94 113 -101 132 -2 4 1 8 7 8 5 0 30 -27 55 -59z"/>
<path d="M4110 4548 c-29 -32 -33 -57 -17 -104 16 -44 8 -74 -20 -74 -14 0
-13 3 2 26 16 24 16 26 -2 40 -25 19 -41 17 -53 -5 -25 -49 3 -102 63 -116 31
-8 59 11 83 56 12 23 11 34 -3 74 -14 44 -14 48 2 63 16 16 17 15 11 -9 -5
-21 -1 -30 19 -43 23 -15 25 -15 40 8 43 65 -71 142 -125 84z"/>
<path d="M755 4470 c-18 -20 -17 -21 15 -62 19 -23 27 -38 19 -33 -8 5 -30 18
-49 31 -35 21 -36 21 -59 3 l-23 -19 88 -100 c87 -100 88 -101 107 -81 20 19
20 20 -13 62 l-34 42 42 -27 c54 -34 53 -34 81 -14 l23 17 -87 100 c-49 56
-89 101 -90 101 -1 0 -10 -9 -20 -20z"/>
<path d="M4266 4334 c-49 -52 -87 -96 -85 -98 67 -59 103 -86 116 -86 24 0 85
70 80 92 -4 12 0 18 12 18 23 0 61 41 61 65 0 17 -75 105 -90 105 -3 0 -46
-43 -94 -96z m124 8 c0 -14 -36 -43 -43 -35 -4 3 0 15 10 25 17 19 33 24 33
10z m-70 -74 c0 -17 -31 -48 -47 -48 -11 0 -8 8 9 29 24 32 38 38 38 19z"/>
<path d="M561 4306 l-33 -34 83 -107 83 -106 24 24 c21 21 22 27 11 45 -17 27
-7 37 19 21 18 -11 24 -10 41 5 12 11 21 23 21 27 0 7 -203 159 -212 159 -2 0
-19 -15 -37 -34z m108 -90 c12 -13 19 -26 14 -29 -4 -2 -18 9 -31 24 -28 35
-15 39 17 5z"/>
<path d="M4411 4202 l-93 -87 26 -24 26 -25 40 39 c22 21 43 35 47 31 5 -4
-11 -25 -33 -45 -41 -36 -41 -37 -24 -59 10 -12 22 -22 27 -22 16 0 83 75 83
94 0 9 4 14 10 11 20 -12 80 48 80 81 0 7 -82 94 -89 94 -3 0 -48 -40 -100
-88z m106 -19 c-9 -9 -20 -14 -24 -10 -3 4 2 14 13 21 25 19 33 10 11 -11z"/>
<path d="M388 4126 c-16 -19 -28 -38 -28 -41 0 -4 39 -49 88 -101 l87 -95 23
27 c22 25 22 27 6 45 -22 24 -10 37 17 20 18 -10 24 -10 40 5 10 9 19 23 19
29 0 9 -210 145 -223 145 -1 0 -14 -16 -29 -34z m107 -80 c17 -13 26 -28 22
-32 -4 -4 -22 6 -40 24 -37 37 -25 43 18 8z"/>
<path d="M4555 4069 c-55 -34 -104 -65 -109 -70 -6 -5 -1 -18 13 -33 19 -20
26 -23 42 -13 25 16 36 1 16 -21 -16 -17 -15 -20 8 -42 l26 -24 22 25 c13 13
54 56 91 95 l67 72 -31 36 c-18 20 -35 36 -39 36 -3 0 -51 -28 -106 -61z m75
-32 c0 -2 -13 -16 -29 -31 -18 -17 -31 -24 -35 -17 -4 6 8 20 26 31 34 20 38
22 38 17z"/>
<path d="M282 3993 c-39 -51 -41 -58 -27 -72 13 -13 19 -14 36 -3 19 12 29 7
102 -46 84 -62 95 -64 117 -22 7 13 -6 27 -67 71 -41 30 -80 57 -86 61 -7 4
-6 12 3 23 12 15 12 19 -5 31 -10 8 -21 14 -24 14 -3 0 -25 -26 -49 -57z"/>
<path d="M4670 3929 c-58 -39 -106 -73 -108 -74 -7 -6 19 -45 29 -45 6 0 26
12 45 26 19 15 34 22 34 16 0 -6 -4 -13 -10 -17 -5 -3 -18 -18 -29 -33 -19
-27 -19 -29 -2 -51 l18 -24 107 73 c58 41 106 77 106 80 0 3 -6 15 -14 25 -13
19 -15 18 -56 -9 -43 -28 -44 -24 -3 30 23 30 23 32 6 53 l-18 22 -105 -72z"/>
<path d="M185 3863 c-29 -44 -38 -31 95 -142 l84 -71 19 31 c19 29 19 31 2 43
-25 18 -11 40 16 23 17 -10 23 -9 39 13 11 14 20 27 20 30 0 5 -230 110 -242
110 -4 0 -19 -17 -33 -37z m145 -85 c0 -14 -14 -8 -45 18 l-30 25 38 -17 c20
-10 37 -21 37 -26z"/>
<path d="M4836 3805 c-79 -41 -146 -88 -151 -106 -10 -29 25 -92 57 -103 21
-7 37 -5 63 7 l36 17 -17 29 c-17 29 -18 29 -47 15 -32 -17 -49 -11 -26 10 8
7 44 30 82 51 47 26 67 33 67 22 0 -7 -11 -19 -25 -25 -28 -13 -31 -29 -11
-57 13 -18 16 -18 41 -5 62 33 68 89 13 135 -34 29 -43 30 -82 10z"/>
<path d="M118 3738 c-19 -16 -68 -89 -68 -103 0 -10 208 -126 225 -125 6 0 24
25 40 55 38 69 34 75 -76 137 -92 52 -98 54 -121 36z m88 -94 c63 -35 85 -54
64 -54 -16 0 -150 74 -150 83 0 14 22 7 86 -29z"/>
<path d="M4873 3602 l-111 -57 14 -27 c17 -33 15 -33 64 -8 42 22 60 25 60 12
0 -5 -18 -17 -40 -27 -23 -10 -43 -22 -46 -27 -4 -6 9 -42 21 -56 6 -7 235
113 235 123 0 5 -7 19 -15 29 -14 19 -16 19 -50 3 -40 -19 -55 -21 -55 -9 0 5
18 17 40 27 22 10 40 19 40 21 0 14 -26 54 -34 53 -6 0 -61 -26 -123 -57z"/>
</g>
</svg>
